<?xml version="1.0" encoding="UTF-8" standalone="no"?>
<svg
   version="1.1"
   x="0"
   y="0"
   width="437.7981"
   height="711.64282"
   viewBox="0 0 437.7981 711.64282"
   id="svg19"
   xmlns="http://www.w3.org/2000/svg"
   xmlns:svg="http://www.w3.org/2000/svg">
  <defs
     id="defs19" />
  <g
     id="g23"
     transform="translate(-1488.9202,-0.35369292)">
    <g
       id="g17">
      <path
         d="m 1841.498,702.65 h -181.655 l 5.86,-68.364 c 0,0 -84.845,-50.396 -74.81,-118.524 13.204,-89.671 24.646,-177.483 24.646,-177.483 0,0 9.662,-185.32 12.466,-238.56 3.907,-74.222 70.473,-74.034 70.473,-9.605 0,89.849 0.79,112.809 -0.584,130.709 -1.956,25.391 3.141,87.896 3.141,87.896 0,0 14.436,-233.846 14.436,-265.642 0,-31.251 66.408,-58.598 70.316,5.859 5.948,98.147 -6.621,263.688 -6.621,263.688 0,0 13.797,-198.725 22.246,-222.669 11.721,-33.206 57.605,-29.418 56.646,13.672 -1.951,87.748 -10.527,226.578 -10.527,226.578 0,0 8.554,-85.237 14.182,-138.682 3.904,-37.111 52.734,-62.504 54.689,13.675 1.08,42.161 2.586,96.144 -3.906,148.445 -8.172,65.807 8.573,118.913 0.685,154.307 -16.187,72.598 -69.734,132.194 -69.734,132.194 z"
         fill="#f7cfbe"
         id="path16" />
      <path
         d="m 1841.498,702.65 h -181.655 l 5.86,-68.364 c 0,0 -84.845,-50.396 -74.81,-118.524 13.204,-89.671 24.646,-177.483 24.646,-177.483 0,0 9.662,-185.32 12.466,-238.56 3.907,-74.222 70.473,-74.034 70.473,-9.605 0,89.849 0.79,112.809 -0.584,130.709 -1.956,25.391 3.141,87.896 3.141,87.896 0,0 14.436,-233.846 14.436,-265.642 0,-31.251 66.408,-58.598 70.316,5.859 5.948,98.147 -6.621,263.688 -6.621,263.688 0,0 13.797,-198.725 22.246,-222.669 11.721,-33.206 57.605,-29.418 56.646,13.672 -1.951,87.748 -10.527,226.578 -10.527,226.578 0,0 8.554,-85.237 14.182,-138.682 3.904,-37.111 52.734,-62.504 54.689,13.675 1.08,42.161 2.586,96.144 -3.906,148.445 -8.172,65.807 8.573,118.913 0.685,154.307 -16.187,72.598 -69.734,132.194 -69.734,132.194 z"
         fill-opacity="0"
         stroke="#e16049"
         stroke-width="18.693"
         stroke-linecap="round"
         stroke-linejoin="round"
         id="path17" />
    </g>
    <g
       id="g19">
      <path
         d="m 1598.704,566.546 c 0,0 -37.108,-80.079 -48.828,-101.567 -11.721,-21.488 -41.369,-95.561 -48.835,-113.29 -15.626,-37.111 37.114,-54.69 60.555,-31.251 23.437,23.438 58.595,89.85 58.595,89.85 0,0 40.307,15.389 52.736,19.533 23.442,7.812 39.067,41.017 39.067,41.017"
         fill="#f7cfbe"
         id="path18" />
      <path
         d="m 1598.704,566.546 c 0,0 -37.108,-80.079 -48.828,-101.567 -11.721,-21.488 -41.369,-95.561 -48.835,-113.29 -15.626,-37.111 37.114,-54.69 60.555,-31.251 23.437,23.438 58.595,89.85 58.595,89.85 0,0 40.307,15.389 52.736,19.533 23.442,7.812 39.067,41.017 39.067,41.017"
         fill-opacity="0"
         stroke="#e16049"
         stroke-width="18.693"
         stroke-linecap="round"
         stroke-linejoin="round"
         id="path19" />
    </g>
  </g>
</svg>
