<?xml version="1.0" encoding="UTF-8" standalone="no"?>
<svg
   version="1.1"
   x="0"
   y="0"
   width="437.7981"
   height="711.64282"
   viewBox="0 0 437.7981 711.64282"
   id="svg19"
   xmlns="http://www.w3.org/2000/svg"
   xmlns:svg="http://www.w3.org/2000/svg">
  <defs
     id="defs19" />
  <g
     id="g22"
     transform="translate(-937.40606,-0.35369292)">
    <g
       id="g12">
      <path
         d="m 1246.9,702.65 h -181.654 l 5.861,-68.364 c 0,0 -101.02,-80.62 -91.716,-148.849 4.236,-31.069 26.06,-46.027 29.564,-51.281 5.647,-8.473 1.513,-51.455 8.565,-95.279 8.728,-54.233 41.305,-64.866 72.023,-56.49 31.068,8.475 26.489,34.242 26.489,34.242 0,0 19.533,-29.3 50.783,-23.438 26.947,5.05 29.298,35.158 29.298,35.158 0,0 20.916,-23.887 44.929,-15.627 36.762,12.649 27.344,52.737 27.344,52.737 0,0 48.789,-40.439 66.366,10.344 17.583,50.785 -7.822,83.323 -12.338,122.614 -12.212,106.193 -73.56,141.727 -73.56,141.727 z"
         fill="#f7cfbe"
         id="path11" />
      <path
         d="m 1246.9,702.65 h -181.654 l 5.861,-68.364 c 0,0 -101.02,-80.62 -91.716,-148.849 4.236,-31.069 26.06,-46.027 29.564,-51.281 5.647,-8.473 1.513,-51.455 8.565,-95.279 8.728,-54.233 41.305,-64.866 72.023,-56.49 31.068,8.475 26.489,34.242 26.489,34.242 0,0 19.533,-29.3 50.783,-23.438 26.947,5.05 29.298,35.158 29.298,35.158 0,0 20.916,-23.887 44.929,-15.627 36.762,12.649 27.344,52.737 27.344,52.737 0,0 48.789,-40.439 66.366,10.344 17.583,50.785 -7.822,83.323 -12.338,122.614 -12.212,106.193 -73.56,141.727 -73.56,141.727 z"
         fill-opacity="0"
         stroke="#e16049"
         stroke-width="18.693"
         stroke-linecap="round"
         stroke-linejoin="round"
         id="path12" />
    </g>
    <path
       d="m 1114.255,323.785 c 0,0 -45.315,123.26 -2.149,131.21 48.619,8.951 65.574,-15.746 67.048,-34.927 1.947,-25.284 18.827,-94.845 18.827,-94.845 0,0 -45.511,144.12 2.167,150.622 49.608,6.766 47.334,-35.272 54.181,-54.179 6.849,-18.908 16.848,-68.906 16.848,-68.906 0,0 -21.347,81.933 -26.126,100.566 -10.227,39.857 64.512,83.341 77.193,-22.991 l 8.67,-3.252"
       fill-opacity="0"
       stroke="#e16049"
       stroke-width="18.693"
       stroke-linecap="round"
       stroke-linejoin="round"
       id="path13" />
    <g
       id="g15">
      <path
         d="m 1079.565,529.443 c 0,0 15.14,-30.508 38.235,-33.133 113.076,-12.865 85.034,-106.834 6.111,-94.824 -117.248,17.843 -137.459,69.829 -137.459,69.829"
         fill="#f7cfbe"
         id="path14" />
      <path
         d="m 1079.565,529.443 c 0,0 15.14,-30.508 38.235,-33.133 113.076,-12.865 85.034,-106.834 6.111,-94.824 -117.248,17.843 -137.459,69.829 -137.459,69.829"
         fill-opacity="0"
         stroke="#e16049"
         stroke-width="18.693"
         stroke-linecap="round"
         stroke-linejoin="round"
         id="path15" />
    </g>
  </g>
</svg>
