<?xml version="1.0" encoding="UTF-8" standalone="no"?>
<svg
   version="1.1"
   x="0"
   y="0"
   width="437.7981"
   height="711.64282"
   viewBox="0 0 437.7981 711.64282"
   id="svg19"
   xmlns="http://www.w3.org/2000/svg"
   xmlns:svg="http://www.w3.org/2000/svg">
  <defs
     id="defs19" />
  <g
     id="g21"
     transform="translate(-417.16417,-0.35369292)">
    <g
       id="g7">
      <path
         d="M 734.198,702.65 H 552.546 l 5.858,-68.364 c 0,0 -72.942,-90.241 -62.908,-158.367 13.207,-89.668 12.746,-137.635 12.746,-137.635 0,0 -10.698,-180.96 -11.694,-234.265 -1.213,-64.974 71.382,-74.612 78.656,-10.595 9.64,84.847 23.755,245.798 23.755,245.798 12.621,-31.909 56.473,-205.471 66.309,-245.798 16.993,-69.674 87.576,-48.995 81.072,1.895 -9.88,77.286 -62.929,222.84 -62.929,222.84 0,0 20.917,-23.886 44.928,-15.626 36.764,12.647 27.345,52.736 27.345,52.736 0,0 38.712,-22.05 56.291,28.734 17.58,50.783 7.084,75.99 -2.263,114.419 -17.58,72.269 -73.56,141.724 -73.56,141.724 z"
         fill="#f7cfbe"
         id="path6" />
      <path
         d="M 734.198,702.65 H 552.546 l 5.858,-68.364 c 0,0 -72.942,-90.241 -62.908,-158.367 13.207,-89.668 12.746,-137.635 12.746,-137.635 0,0 -10.698,-180.96 -11.694,-234.265 -1.213,-64.974 71.382,-74.612 78.656,-10.595 9.64,84.847 23.755,245.798 23.755,245.798 12.621,-31.909 56.473,-205.471 66.309,-245.798 16.993,-69.674 87.576,-48.995 81.072,1.895 -9.88,77.286 -62.929,222.84 -62.929,222.84 0,0 20.917,-23.886 44.928,-15.626 36.764,12.647 27.345,52.736 27.345,52.736 0,0 38.712,-22.05 56.291,28.734 17.58,50.783 7.084,75.99 -2.263,114.419 -17.58,72.269 -73.56,141.724 -73.56,141.724 z"
         fill-opacity="0"
         stroke="#e16049"
         stroke-width="18.693"
         stroke-linecap="round"
         stroke-linejoin="round"
         id="path7" />
    </g>
    <path
       d="m 683.411,318.159 c 0,0 -64.457,126.356 -17.577,143.933 46.878,17.578 46.878,-17.577 56.643,-35.159 9.768,-17.578 33.207,-71.664 33.207,-71.664 0,0 -41.792,86.033 -43.401,105.201 -2.383,28.4 32.082,38.591 45.753,26.872 13.674,-11.718 29.299,-50.782 29.299,-50.782 l 13.4,-9.601"
       fill-opacity="0"
       stroke="#e16049"
       stroke-width="18.693"
       stroke-linecap="round"
       stroke-linejoin="round"
       id="path8" />
    <g
       id="g10">
      <path
         d="m 566.864,529.447 c 0,0 15.307,-29.315 38.233,-33.137 76.467,-12.745 84.021,-101.216 5.096,-89.207 -117.246,17.842 -112.148,73.915 -112.148,73.915"
         fill="#f7cfbe"
         id="path9" />
      <path
         d="m 566.864,529.447 c 0,0 15.307,-29.315 38.233,-33.137 76.467,-12.745 84.021,-101.216 5.096,-89.207 -117.246,17.842 -112.148,73.915 -112.148,73.915"
         fill-opacity="0"
         stroke="#e16049"
         stroke-width="18.693"
         stroke-linecap="round"
         stroke-linejoin="round"
         id="path10" />
    </g>
  </g>
</svg>
